<?xml version="1.0" encoding="UTF-8"?>
<svg width="1200" height="300" viewBox="0 0 1200 300" xmlns="http://www.w3.org/2000/svg">
  <!-- Background pattern -->
  <defs>
    <linearGradient id="headerGradient" x1="0%" y1="0%" x2="100%" y2="100%">
      <stop offset="0%" stop-color="#6a11cb" stop-opacity="0.15"/>
      <stop offset="100%" stop-color="#2575fc" stop-opacity="0.1"/>
    </linearGradient>
    
    <filter id="glow" x="-20%" y="-20%" width="140%" height="140%">
      <feGaussianBlur stdDeviation="8" result="blur"/>
      <feComposite in="SourceGraphic" in2="blur" operator="over"/>
    </filter>
  </defs>
  
  <!-- Abstract wave pattern -->
  <path d="M0,100 Q300,180 600,120 T1200,160 L1200,300 L0,300 Z" fill="url(#headerGradient)" opacity="0.7"/>
  <path d="M0,150 Q300,80 600,130 T1200,60 L1200,300 L0,300 Z" fill="url(#headerGradient)" opacity="0.4"/>
  
  <!-- Decorative elements -->
  <circle cx="100" cy="70" r="20" fill="#6a11cb" opacity="0.15"/>
  <circle cx="1100" cy="90" r="35" fill="#2575fc" opacity="0.15"/>
  <circle cx="300" cy="40" r="15" fill="#6a11cb" opacity="0.15"/>
  <circle cx="800" cy="60" r="25" fill="#2575fc" opacity="0.15"/>
  
  <!-- Artistic line patterns -->
  <path d="M50,50 Q250,30 450,70 T850,40 T1150,80" stroke="#ffffff" stroke-width="1.5" fill="none" opacity="0.3" filter="url(#glow)"/>
  <path d="M50,90 Q250,120 450,80 T850,110 T1150,70" stroke="#ffffff" stroke-width="1" fill="none" opacity="0.2" filter="url(#glow)"/>
  
  <!-- Small geometric elements -->
  <g opacity="0.2">
    <rect x="220" y="30" width="10" height="10" transform="rotate(45, 225, 35)" fill="#ffffff"/>
    <rect x="680" y="25" width="8" height="8" transform="rotate(30, 684, 29)" fill="#ffffff"/>
    <rect x="980" y="45" width="12" height="12" transform="rotate(60, 986, 51)" fill="#ffffff"/>
  </g>
</svg> 