<svg xmlns="http://www.w3.org/2000/svg" viewBox="0 0 512 512">
  <path fill="#45B69C" d="M488.7 337.9l-90.5-131.9c-2.5-3.6-6.6-5.8-11-5.8h-.1c-4.4.1-8.4 2.3-10.9 6L280 342.3l-56.1-80.6c-2.5-3.6-6.6-5.8-11-5.8h-.1c-4.4.1-8.4 2.3-10.9 6l-96 139.8c-2.4 3.5-2.7 8-1 11.8 1.8 3.9 5.6 6.4 9.8 6.5h364.8c4.3 0 8.2-2.4 10-6.3 1.9-3.9 1.5-8.4-1-12z"/>
  <path fill="#2D7DD2" d="M407.3 407.7L312 286l-84.2 121.7h179.5z"/>
  <path fill="#333F48" d="M311.6 286L280 342.3l31.6 65.4 32.1-65.4z"/>
  <circle fill="#FF6B35" cx="140" cy="170" r="25"/>
</svg> 