<svg xmlns="http://www.w3.org/2000/svg" viewBox="0 0 100 100">
  <g fill="#2D7DD2" opacity="0.2">
    <path d="M20,25 L25,20 L30,25 L25,30 Z"/>
    <path d="M70,25 L75,20 L80,25 L75,30 Z"/>
    <path d="M20,75 L25,70 L30,75 L25,80 Z"/>
    <path d="M70,75 L75,70 L80,75 L75,80 Z"/>
  </g>
  <g fill="#45B69C" opacity="0.2">
    <circle cx="10" cy="10" r="5"/>
    <circle cx="90" cy="10" r="5"/>
    <circle cx="10" cy="90" r="5"/>
    <circle cx="90" cy="90" r="5"/>
    <circle cx="50" cy="50" r="8"/>
  </g>
  <g fill="#FF6B35" opacity="0.2">
    <path d="M40,20 L50,10 L60,20 L50,30 Z"/>
    <path d="M40,80 L50,70 L60,80 L50,90 Z"/>
    <path d="M20,40 L10,50 L20,60 L30,50 Z"/>
    <path d="M80,40 L70,50 L80,60 L90,50 Z"/>
  </g>
  <g fill="#333F48" opacity="0.1">
    <rect x="45" y="5" width="10" height="5"/>
    <rect x="45" y="90" width="10" height="5"/>
    <rect x="5" y="45" width="5" height="10"/>
    <rect x="90" y="45" width="5" height="10"/>
    <rect x="38" y="38" width="24" height="24" rx="12" ry="12"/>
  </g>
</svg> 