<?xml version="1.0" encoding="UTF-8"?>
<svg width="512" height="512" viewBox="0 0 512 512" fill="none" xmlns="http://www.w3.org/2000/svg">
  <path d="M256 64C176 192 96 300 96 368C96 447.5 168.5 512 256 512C343.5 512 416 447.5 416 368C416 300 336 192 256 64ZM366.4 398.3C357.55 417.4 341.8 433.14 322.7 442C316.3 445.36 309.1 447.76 302.7 449.06C275.1 454.36 247.3 446.96 226.7 430.36C226 429.86 225.35 429.26 224.8 428.76C201.3 408.06 191.55 376.86 198.35 347.86C200.65 337.86 204.9 328.56 210.8 320.26C210.85 320.26 210.85 320.16 210.9 320.16C216.7 311.96 223.9 304.76 232.1 298.96C242.65 292.16 254.35 288.26 266.55 287.26C287.55 285.46 308.35 292.66 324.05 308.36C339.75 324.06 346.95 344.96 345.15 365.86C344.95 369.26 344.45 372.66 343.75 375.96C343.45 377.26 343.15 378.66 342.75 379.96C341.15 385.96 338.75 391.76 335.75 397.16L366.4 398.3Z" fill="#3CAEA3"/>
</svg> 